STARTFONT 2.3
FONT -FontForge-Monoton-Book-R-Normal--8-80-72-72-P-54-ISO10646-1
SIZE 8 72 72  4
FONTBOUNDINGBOX 15 14 -1 -4
COMMENT "Generated by fontforge, http://fontforge.sourceforge.net"
COMMENT "Copyright (c) 2011 by vernon adams. All rights reserved."
STARTPROPERTIES 41
FOUNDRY "FontForge"
FAMILY_NAME "Monoton"
WEIGHT_NAME "Book"
SLANT "R"
SETWIDTH_NAME "Normal"
ADD_STYLE_NAME ""
PIXEL_SIZE 8
POINT_SIZE 80
RESOLUTION_X 72
RESOLUTION_Y 72
SPACING "P"
AVERAGE_WIDTH 54
CHARSET_REGISTRY "ISO10646"
CHARSET_ENCODING "1"
FONTNAME_REGISTRY ""
CHARSET_COLLECTIONS "ISO8859-2 ISO8859-9 ISO8859-4 ISO10646-1"
BITS_PER_PIXEL 4
FONT_NAME "Monoton-Regular"
FACE_NAME "Monoton"
COPYRIGHT "Copyright (c) 2011 by vernon adams. All rights reserved."
FONT_VERSION "1.000"
FONT_ASCENT 6
FONT_DESCENT 2
UNDERLINE_POSITION 0
UNDERLINE_THICKNESS 1
X_HEIGHT 5
CAP_HEIGHT 6
DEFAULT_CHAR 1
RAW_ASCENT 799
RAW_DESCENT 200
NORM_SPACE 1
RELATIVE_WEIGHT 40
RELATIVE_SETWIDTH 50
SUPERSCRIPT_X 0
SUPERSCRIPT_Y 2
SUPERSCRIPT_SIZE 4
SUBSCRIPT_X 0
SUBSCRIPT_Y 0
SUBSCRIPT_SIZE 4
AVG_LOWERCASE_WIDTH 58
AVG_UPPERCASE_WIDTH 63
ENDPROPERTIES
CHARS 372
STARTCHAR glyph1.dup1
ENCODING 0
SWIDTH 108 0
DWIDTH 1 0
BBX 1 1 0 0
BITMAP
00
ENDCHAR
STARTCHAR uni0002
ENCODING 2
SWIDTH 108 0
DWIDTH 1 0
BBX 1 1 0 0
BITMAP
00
ENDCHAR
STARTCHAR uni0009
ENCODING 9
SWIDTH 108 0
DWIDTH 1 0
BBX 1 1 0 0
BITMAP
00
ENDCHAR
STARTCHAR uni000A
ENCODING 10
SWIDTH 108 0
DWIDTH 1 0
BBX 1 1 0 0
BITMAP
00
ENDCHAR
STARTCHAR uni000D
ENCODING 13
SWIDTH 108 0
DWIDTH 1 0
BBX 1 1 0 0
BITMAP
00
ENDCHAR
STARTCHAR space
ENCODING 32
SWIDTH 108 0
DWIDTH 1 0
BBX 1 1 0 0
BITMAP
00
ENDCHAR
STARTCHAR exclam
ENCODING 33
SWIDTH 336 0
DWIDTH 3 0
BBX 3 8 0 -1
BITMAP
2420
5840
5840
5840
5840
3420
4720
3410
ENDCHAR
STARTCHAR quotedbl
ENCODING 34
SWIDTH 538 0
DWIDTH 4 0
BBX 4 4 0 3
BITMAP
3324
6748
6748
0001
ENDCHAR
STARTCHAR numbersign
ENCODING 35
SWIDTH 1014 0
DWIDTH 8 0
BBX 8 8 0 -1
BITMAP
00352360
03684684
08878976
00842740
04745820
57877870
38648630
04213200
ENDCHAR
STARTCHAR dollar
ENCODING 36
SWIDTH 686 0
DWIDTH 5 0
BBX 6 10 0 -2
BITMAP
003200
056540
587751
678500
587760
057872
056872
487760
011000
001100
ENDCHAR
STARTCHAR percent
ENCODING 37
SWIDTH 1504 0
DWIDTH 12 0
BBX 12 8 0 -1
BITMAP
046500420000
487852740000
667684723430
578765847874
178728577677
000027467876
000048137683
000035001310
ENDCHAR
STARTCHAR ampersand
ENCODING 38
SWIDTH 1029 0
DWIDTH 8 0
BBX 8 7 0 0
BITMAP
02442440
37884880
67642880
57988887
67644884
57886777
17886277
ENDCHAR
STARTCHAR quotesingle
ENCODING 39
SWIDTH 257 0
DWIDTH 2 0
BBX 2 3 0 4
BITMAP
33
67
67
ENDCHAR
STARTCHAR parenleft
ENCODING 40
SWIDTH 410 0
DWIDTH 3 0
BBX 3 8 0 -1
BITMAP
0460
4770
6760
6740
6740
5850
3780
0340
ENDCHAR
STARTCHAR parenright
ENCODING 41
SWIDTH 408 0
DWIDTH 3 0
BBX 3 8 0 -1
BITMAP
5510
5760
3790
0880
0880
3780
6750
3400
ENDCHAR
STARTCHAR asterisk
ENCODING 42
SWIDTH 664 0
DWIDTH 5 0
BBX 5 6 0 0
BITMAP
005300
378750
389760
577870
148620
001100
ENDCHAR
STARTCHAR plus
ENCODING 43
SWIDTH 601 0
DWIDTH 5 0
BBX 5 5 0 1
BITMAP
001000
048400
688940
368720
025200
ENDCHAR
STARTCHAR comma
ENCODING 44
SWIDTH 252 0
DWIDTH 2 0
BBX 2 4 0 -2
BITMAP
23
57
55
10
ENDCHAR
STARTCHAR hyphen
ENCODING 45
SWIDTH 473 0
DWIDTH 4 0
BBX 4 2 0 2
BITMAP
5884
3442
ENDCHAR
STARTCHAR period
ENCODING 46
SWIDTH 255 0
DWIDTH 2 0
BBX 2 2 0 0
BITMAP
33
66
ENDCHAR
STARTCHAR slash
ENCODING 47
SWIDTH 447 0
DWIDTH 4 0
BBX 4 8 0 -1
BITMAP
0132
0473
0590
0760
1840
4730
4900
5500
ENDCHAR
STARTCHAR zero
ENCODING 48
SWIDTH 843 0
DWIDTH 7 0
BBX 7 8 0 -1
BITMAP
02675100
28878800
58647740
77404940
67405850
48878820
06878400
00241000
ENDCHAR
STARTCHAR one
ENCODING 49
SWIDTH 426 0
DWIDTH 3 0
BBX 4 7 0 0
BITMAP
3440
7991
0881
0881
0881
0881
0881
ENDCHAR
STARTCHAR two
ENCODING 50
SWIDTH 583 0
DWIDTH 5 0
BBX 5 7 0 0
BITMAP
466300
578730
246840
028820
178400
578400
688810
ENDCHAR
STARTCHAR three
ENCODING 51
SWIDTH 612 0
DWIDTH 5 0
BBX 5 8 0 -1
BITMAP
366400
578830
267850
057840
058750
478850
577720
133000
ENDCHAR
STARTCHAR four
ENCODING 52
SWIDTH 622 0
DWIDTH 5 0
BBX 5 7 0 0
BITMAP
014310
057700
087400
478430
576650
688860
000440
ENDCHAR
STARTCHAR five
ENCODING 53
SWIDTH 691 0
DWIDTH 6 0
BBX 6 8 0 -1
BITMAP
244430
598860
484300
487760
365873
057873
487750
014200
ENDCHAR
STARTCHAR six
ENCODING 54
SWIDTH 781 0
DWIDTH 6 0
BBX 6 8 0 -1
BITMAP
035651
378772
577720
777774
678589
588788
177674
002410
ENDCHAR
STARTCHAR seven
ENCODING 55
SWIDTH 631 0
DWIDTH 5 0
BBX 5 7 0 0
BITMAP
344340
788850
006840
009720
027800
048500
058400
ENDCHAR
STARTCHAR eight
ENCODING 56
SWIDTH 808 0
DWIDTH 6 0
BBX 7 8 0 -1
BITMAP
04775200
58778700
67878730
58778810
68778820
58868720
28777500
01342000
ENDCHAR
STARTCHAR nine
ENCODING 57
SWIDTH 782 0
DWIDTH 6 0
BBX 6 8 0 -1
BITMAP
046640
477775
777678
577688
057688
027777
187672
003300
ENDCHAR
STARTCHAR colon
ENCODING 58
SWIDTH 262 0
DWIDTH 2 0
BBX 2 4 0 1
BITMAP
56
34
33
56
ENDCHAR
STARTCHAR semicolon
ENCODING 59
SWIDTH 261 0
DWIDTH 2 0
BBX 2 5 0 0
BITMAP
56
34
34
47
65
ENDCHAR
STARTCHAR less
ENCODING 60
SWIDTH 670 0
DWIDTH 5 0
BBX 6 6 0 0
BITMAP
003580
377871
578620
677850
046780
000250
ENDCHAR
STARTCHAR equal
ENCODING 61
SWIDTH 473 0
DWIDTH 4 0
BBX 4 4 0 1
BITMAP
5883
3552
3442
5884
ENDCHAR
STARTCHAR greater
ENCODING 62
SWIDTH 670 0
DWIDTH 5 0
BBX 6 7 0 0
BITMAP
100000
564000
687850
148681
387881
678510
330000
ENDCHAR
STARTCHAR question
ENCODING 63
SWIDTH 693 0
DWIDTH 6 0
BBX 6 7 0 0
BITMAP
256520
387871
024774
278872
279630
263000
284000
ENDCHAR
STARTCHAR at
ENCODING 64
SWIDTH 1076 0
DWIDTH 9 0
BBX 9 8 0 -1
BITMAP
0159884000
0784468500
4858875820
6757575740
5857587740
4764476820
0678823100
0034410000
ENDCHAR
STARTCHAR A
ENCODING 65
SWIDTH 936 0
DWIDTH 8 0
BBX 8 7 0 0
BITMAP
00334000
00687300
02878500
05867810
08757740
47867770
68533872
ENDCHAR
STARTCHAR B
ENCODING 66
SWIDTH 862 0
DWIDTH 7 0
BBX 7 7 0 0
BITMAP
34444200
59888720
57646850
57989750
57646850
57988750
57988600
ENDCHAR
STARTCHAR C
ENCODING 67
SWIDTH 852 0
DWIDTH 7 0
BBX 7 8 0 -1
BITMAP
01565300
18878730
58745400
77400000
68501100
38878720
04877710
00143000
ENDCHAR
STARTCHAR D
ENCODING 68
SWIDTH 886 0
DWIDTH 7 0
BBX 7 7 0 0
BITMAP
34445100
59887810
57647860
57404680
57405770
58887740
69888500
ENDCHAR
STARTCHAR E
ENCODING 69
SWIDTH 706 0
DWIDTH 6 0
BBX 6 7 0 0
BITMAP
335441
57A883
574000
57A700
577400
577441
57A883
ENDCHAR
STARTCHAR F
ENCODING 70
SWIDTH 683 0
DWIDTH 5 0
BBX 6 7 0 0
BITMAP
335441
57A881
574000
578660
579770
574000
574000
ENDCHAR
STARTCHAR G
ENCODING 71
SWIDTH 908 0
DWIDTH 7 0
BBX 7 8 0 -1
BITMAP
01565300
18878730
58745400
77400330
67400880
37778880
05877880
00133000
ENDCHAR
STARTCHAR H
ENCODING 72
SWIDTH 901 0
DWIDTH 7 0
BBX 7 7 0 0
BITMAP
33201340
57402780
57402780
57A89780
57746780
57402780
57402780
ENDCHAR
STARTCHAR I
ENCODING 73
SWIDTH 338 0
DWIDTH 3 0
BBX 3 7 0 0
BITMAP
3320
5740
5740
5740
5740
5740
5740
ENDCHAR
STARTCHAR J
ENCODING 74
SWIDTH 434 0
DWIDTH 3 0
BBX 4 8 0 -1
BITMAP
0431
0872
0872
0872
0872
5780
5840
3100
ENDCHAR
STARTCHAR K
ENCODING 75
SWIDTH 815 0
DWIDTH 7 0
BBX 7 7 0 0
BITMAP
33204320
57447700
57487400
57878000
57678200
57468500
57428820
ENDCHAR
STARTCHAR L
ENCODING 76
SWIDTH 604 0
DWIDTH 5 0
BBX 5 7 0 0
BITMAP
332000
574000
574000
574000
574000
577420
57A850
ENDCHAR
STARTCHAR M
ENCODING 77
SWIDTH 920 0
DWIDTH 7 0
BBX 7 7 0 0
BITMAP
34100350
68502890
58816880
57867780
57887780
57522880
57400880
ENDCHAR
STARTCHAR N
ENCODING 78
SWIDTH 877 0
DWIDTH 7 0
BBX 7 7 0 0
BITMAP
33302330
68734750
58775750
57888750
57778750
57468850
57418870
ENDCHAR
STARTCHAR O
ENCODING 79
SWIDTH 933 0
DWIDTH 7 0
BBX 8 8 0 -1
BITMAP
01565300
18878840
58745881
77400773
68501872
38878770
04878710
00143000
ENDCHAR
STARTCHAR P
ENCODING 80
SWIDTH 850 0
DWIDTH 7 0
BBX 7 7 0 0
BITMAP
34444100
59887710
57646840
57757840
57887810
57644100
57400000
ENDCHAR
STARTCHAR Q
ENCODING 81
SWIDTH 937 0
DWIDTH 8 0
BBX 8 8 0 -1
BITMAP
01565300
18878840
58745881
77400773
68526872
38878770
04878840
00143520
ENDCHAR
STARTCHAR R
ENCODING 82
SWIDTH 843 0
DWIDTH 7 0
BBX 7 7 0 0
BITMAP
34444100
59887710
57646840
57888740
57877800
57669600
57418800
ENDCHAR
STARTCHAR S
ENCODING 83
SWIDTH 682 0
DWIDTH 5 0
BBX 6 8 0 -1
BITMAP
056540
587751
778500
587760
057882
056872
487760
014200
ENDCHAR
STARTCHAR T
ENCODING 84
SWIDTH 591 0
DWIDTH 5 0
BBX 5 7 0 0
BITMAP
344420
699940
057400
057400
057400
057400
057400
ENDCHAR
STARTCHAR U
ENCODING 85
SWIDTH 905 0
DWIDTH 7 0
BBX 7 8 0 -1
BITMAP
33201340
67401780
67401780
67401780
58503780
48878850
05867700
00142000
ENDCHAR
STARTCHAR V
ENCODING 86
SWIDTH 940 0
DWIDTH 8 0
BBX 8 7 0 0
BITMAP
33200432
58602781
18815850
06858730
04787800
00878400
00588100
ENDCHAR
STARTCHAR W
ENCODING 87
SWIDTH 1161 0
DWIDTH 9 0
BBX 9 7 0 0
BITMAP
3322430440
5846793780
4768787850
1886988740
0778979810
05875A7800
0498188500
ENDCHAR
STARTCHAR X
ENCODING 88
SWIDTH 876 0
DWIDTH 7 0
BBX 7 7 0 0
BITMAP
34203420
37857720
06787500
01778000
02877400
07777810
47817760
ENDCHAR
STARTCHAR Y
ENCODING 89
SWIDTH 789 0
DWIDTH 6 0
BBX 6 7 0 0
BITMAP
332044
485376
087773
048770
018730
008720
008720
ENDCHAR
STARTCHAR Z
ENCODING 90
SWIDTH 854 0
DWIDTH 7 0
BBX 7 7 0 0
BITMAP
34444430
68887730
34457740
02777500
37773000
58668840
78888840
ENDCHAR
STARTCHAR bracketleft
ENCODING 91
SWIDTH 320 0
DWIDTH 3 0
BBX 3 8 0 -1
BITMAP
5720
5820
5800
5800
5800
5800
5930
4410
ENDCHAR
STARTCHAR backslash
ENCODING 92
SWIDTH 448 0
DWIDTH 4 0
BBX 4 8 0 -1
BITMAP
3300
5800
4720
1740
0850
0580
0472
0153
ENDCHAR
STARTCHAR bracketright
ENCODING 93
SWIDTH 319 0
DWIDTH 3 0
BBX 3 8 0 -1
BITMAP
5720
5730
3730
3730
3730
3730
7730
3520
ENDCHAR
STARTCHAR asciicircum
ENCODING 94
SWIDTH 475 0
DWIDTH 4 0
BBX 4 4 0 2
BITMAP
0530
1770
4563
3222
ENDCHAR
STARTCHAR underscore
ENCODING 95
SWIDTH 511 0
DWIDTH 4 0
BBX 4 2 0 -2
BITMAP
5886
3443
ENDCHAR
STARTCHAR grave
ENCODING 96
SWIDTH 472 0
DWIDTH 4 0
BBX 4 3 0 5
BITMAP
2400
2672
0020
ENDCHAR
STARTCHAR a
ENCODING 97
SWIDTH 832 0
DWIDTH 7 0
BBX 7 7 0 -1
BITMAP
03574100
37768700
57647730
77405740
57887740
06877740
00120000
ENDCHAR
STARTCHAR b
ENCODING 98
SWIDTH 720 0
DWIDTH 6 0
BBX 6 6 0 0
BITMAP
433340
397853
374474
388954
374474
370031
ENDCHAR
STARTCHAR c
ENCODING 99
SWIDTH 736 0
DWIDTH 6 0
BBX 6 7 0 -1
BITMAP
037861
378783
585220
674000
488761
067683
002410
ENDCHAR
STARTCHAR d
ENCODING 100
SWIDTH 833 0
DWIDTH 7 0
BBX 7 6 0 0
BITMAP
45554100
59888700
57758740
57407740
58887710
69887300
ENDCHAR
STARTCHAR e
ENCODING 101
SWIDTH 666 0
DWIDTH 5 0
BBX 5 6 0 0
BITMAP
356550
579880
577440
57A870
577440
57A880
ENDCHAR
STARTCHAR f
ENCODING 102
SWIDTH 625 0
DWIDTH 5 0
BBX 5 6 0 0
BITMAP
356540
579860
577420
579840
575100
574000
ENDCHAR
STARTCHAR g
ENCODING 103
SWIDTH 827 0
DWIDTH 7 0
BBX 7 7 0 -1
BITMAP
03786100
37878300
58522000
67405640
48879740
06768740
00241000
ENDCHAR
STARTCHAR h
ENCODING 104
SWIDTH 830 0
DWIDTH 7 0
BBX 7 6 0 0
BITMAP
35304430
57406740
57868740
57978740
57406740
57406740
ENDCHAR
STARTCHAR i
ENCODING 105
SWIDTH 337 0
DWIDTH 3 0
BBX 3 6 0 0
BITMAP
3530
5740
5740
5740
5740
5740
ENDCHAR
STARTCHAR j
ENCODING 106
SWIDTH 393 0
DWIDTH 3 0
BBX 3 7 0 -1
BITMAP
2450
3780
3780
3780
5770
5840
6400
ENDCHAR
STARTCHAR k
ENCODING 107
SWIDTH 801 0
DWIDTH 6 0
BBX 7 6 0 0
BITMAP
35315510
57458600
57278200
57078000
57477400
57437810
ENDCHAR
STARTCHAR l
ENCODING 108
SWIDTH 583 0
DWIDTH 5 0
BBX 5 6 0 0
BITMAP
353000
574000
574000
574000
577420
57A830
ENDCHAR
STARTCHAR m
ENCODING 109
SWIDTH 1167 0
DWIDTH 9 0
BBX 9 6 0 0
BITMAP
0588679610
4877897770
6755762880
6744750880
6744750880
6744750880
ENDCHAR
STARTCHAR n
ENCODING 110
SWIDTH 787 0
DWIDTH 6 0
BBX 6 6 0 0
BITMAP
545035
687448
587858
577878
573788
570689
ENDCHAR
STARTCHAR o
ENCODING 111
SWIDTH 833 0
DWIDTH 7 0
BBX 7 7 0 -1
BITMAP
03785100
37877700
58527740
67406840
48878810
06778300
00231000
ENDCHAR
STARTCHAR p
ENCODING 112
SWIDTH 781 0
DWIDTH 6 0
BBX 6 6 0 0
BITMAP
455540
598886
578878
577787
577761
574000
ENDCHAR
STARTCHAR q
ENCODING 113
SWIDTH 788 0
DWIDTH 6 0
BBX 6 7 0 -1
BITMAP
034556
388889
685588
675488
378788
024488
000077
ENDCHAR
STARTCHAR r
ENCODING 114
SWIDTH 831 0
DWIDTH 7 0
BBX 7 6 0 0
BITMAP
45555200
59888720
57988740
57878720
57889500
57448600
ENDCHAR
STARTCHAR s
ENCODING 115
SWIDTH 683 0
DWIDTH 5 0
BBX 6 7 0 -1
BITMAP
157640
686751
674420
268881
144672
487860
001100
ENDCHAR
STARTCHAR t
ENCODING 116
SWIDTH 588 0
DWIDTH 5 0
BBX 5 6 0 0
BITMAP
455520
688830
057400
057400
057400
057400
ENDCHAR
STARTCHAR u
ENCODING 117
SWIDTH 795 0
DWIDTH 6 0
BBX 6 7 0 -1
BITMAP
443055
674088
674088
575088
488877
077772
002300
ENDCHAR
STARTCHAR v
ENCODING 118
SWIDTH 855 0
DWIDTH 7 0
BBX 7 6 0 0
BITMAP
44303530
47608740
18757800
05878500
03688100
00886000
ENDCHAR
STARTCHAR w
ENCODING 119
SWIDTH 1129 0
DWIDTH 9 0
BBX 9 7 0 -1
BITMAP
4433532440
6744844760
6744844760
6744844760
5888898850
1778987810
0021012000
ENDCHAR
STARTCHAR x
ENCODING 120
SWIDTH 790 0
DWIDTH 6 0
BBX 6 6 0 0
BITMAP
354345
277875
058870
037760
087883
577687
ENDCHAR
STARTCHAR y
ENCODING 121
SWIDTH 733 0
DWIDTH 6 0
BBX 6 6 0 0
BITMAP
442353
377773
077770
038730
008800
008800
ENDCHAR
STARTCHAR z
ENCODING 122
SWIDTH 714 0
DWIDTH 6 0
BBX 6 6 0 0
BITMAP
355552
588772
018750
067700
377642
687884
ENDCHAR
STARTCHAR braceleft
ENCODING 123
SWIDTH 396 0
DWIDTH 3 0
BBX 3 9 0 -2
BITMAP
0460
2760
4720
4710
6800
5810
4720
2770
0350
ENDCHAR
STARTCHAR bar
ENCODING 124
SWIDTH 266 0
DWIDTH 2 0
BBX 2 8 0 -1
BITMAP
24
58
58
58
58
58
58
46
ENDCHAR
STARTCHAR braceright
ENCODING 125
SWIDTH 396 0
DWIDTH 3 0
BBX 3 9 0 -2
BITMAP
5500
5740
0840
0950
0680
0840
0840
5730
5400
ENDCHAR
STARTCHAR asciitilde
ENCODING 126
SWIDTH 665 0
DWIDTH 5 0
BBX 5 2 0 4
BITMAP
488770
334430
ENDCHAR
STARTCHAR uni00A0
ENCODING 160
SWIDTH 108 0
DWIDTH 1 0
BBX 1 1 0 0
BITMAP
00
ENDCHAR
STARTCHAR exclamdown
ENCODING 161
SWIDTH 336 0
DWIDTH 3 0
BBX 3 8 0 -1
BITMAP
2420
5840
5840
5840
5840
3420
4720
3410
ENDCHAR
STARTCHAR cent
ENCODING 162
SWIDTH 708 0
DWIDTH 6 0
BBX 6 9 0 -1
BITMAP
001100
002100
068772
588860
674000
586530
278872
013330
003300
ENDCHAR
STARTCHAR sterling
ENCODING 163
SWIDTH 689 0
DWIDTH 6 0
BBX 6 7 0 0
BITMAP
046640
487761
676300
678840
677530
677420
67A850
ENDCHAR
STARTCHAR currency
ENCODING 164
SWIDTH 715 0
DWIDTH 6 0
BBX 6 6 0 0
BITMAP
371272
378871
270180
260180
387871
472372
ENDCHAR
STARTCHAR yen
ENCODING 165
SWIDTH 796 0
DWIDTH 6 0
BBX 7 7 0 0
BITMAP
33204310
47637700
08777300
04777000
01874000
18878400
00873000
ENDCHAR
STARTCHAR brokenbar
ENCODING 166
SWIDTH 263 0
DWIDTH 2 0
BBX 2 8 0 -1
BITMAP
33
57
57
35
12
57
57
56
ENDCHAR
STARTCHAR section
ENCODING 167
SWIDTH 108 0
DWIDTH 1 0
BBX 1 1 0 0
BITMAP
00
ENDCHAR
STARTCHAR dieresis
ENCODING 168
SWIDTH 556 0
DWIDTH 4 0
BBX 5 2 0 5
BITMAP
553510
110100
ENDCHAR
STARTCHAR copyright
ENCODING 169
SWIDTH 869 0
DWIDTH 7 0
BBX 7 7 0 0
BITMAP
01766100
17565710
75302170
78000070
75403170
17575710
01666100
ENDCHAR
STARTCHAR ordfeminine
ENCODING 170
SWIDTH 833 0
DWIDTH 7 0
BBX 7 7 0 -1
BITMAP
02575100
27868700
58637730
67405840
47886840
05876840
00120000
ENDCHAR
STARTCHAR guillemotleft
ENCODING 171
SWIDTH 911 0
DWIDTH 7 0
BBX 7 4 0 1
BITMAP
02530460
57838770
67738750
04641580
ENDCHAR
STARTCHAR logicalnot
ENCODING 172
SWIDTH 718 0
DWIDTH 6 0
BBX 6 4 0 1
BITMAP
233321
477784
233384
000031
ENDCHAR
STARTCHAR registered
ENCODING 174
SWIDTH 869 0
DWIDTH 7 0
BBX 7 7 0 0
BITMAP
01766100
17342710
70828070
70977070
70717070
17203710
01666100
ENDCHAR
STARTCHAR degree
ENCODING 176
SWIDTH 330 0
DWIDTH 3 0
BBX 3 3 0 6
BITMAP
1300
7540
4720
ENDCHAR
STARTCHAR plusminus
ENCODING 177
SWIDTH 598 0
DWIDTH 5 0
BBX 5 6 0 0
BITMAP
001000
048400
688940
368720
147410
377720
ENDCHAR
STARTCHAR uni00B2
ENCODING 178
SWIDTH 435 0
DWIDTH 3 0
BBX 4 6 0 1
BITMAP
2440
2463
0280
0720
6740
4550
ENDCHAR
STARTCHAR uni00B3
ENCODING 179
SWIDTH 515 0
DWIDTH 4 0
BBX 4 6 0 1
BITMAP
3430
5884
0485
0775
2468
5983
ENDCHAR
STARTCHAR acute
ENCODING 180
SWIDTH 472 0
DWIDTH 4 0
BBX 4 3 0 5
BITMAP
0041
3851
1100
ENDCHAR
STARTCHAR uni00B5
ENCODING 181
SWIDTH 802 0
DWIDTH 6 0
BBX 7 7 0 -1
BITMAP
35305410
58408710
58408710
58409710
58887700
58777300
46531000
ENDCHAR
STARTCHAR paragraph
ENCODING 182
SWIDTH 676 0
DWIDTH 5 0
BBX 6 7 0 -1
BITMAP
045560
488881
688981
587981
057981
000881
000881
ENDCHAR
STARTCHAR periodcentered
ENCODING 183
SWIDTH 260 0
DWIDTH 2 0
BBX 2 2 0 3
BITMAP
33
66
ENDCHAR
STARTCHAR cedilla
ENCODING 184
SWIDTH 321 0
DWIDTH 3 0
BBX 3 3 0 -3
BITMAP
1420
5610
4920
ENDCHAR
STARTCHAR uni00B9
ENCODING 185
SWIDTH 359 0
DWIDTH 3 0
BBX 3 5 0 2
BITMAP
3420
3A50
0840
0840
0840
ENDCHAR
STARTCHAR ordmasculine
ENCODING 186
SWIDTH 835 0
DWIDTH 7 0
BBX 7 7 0 -1
BITMAP
03686100
37877700
58627740
67405840
48878720
06878400
00231000
ENDCHAR
STARTCHAR guillemotright
ENCODING 187
SWIDTH 912 0
DWIDTH 7 0
BBX 7 4 0 1
BITMAP
54116400
48838780
37746780
65318410
ENDCHAR
STARTCHAR onequarter
ENCODING 188
SWIDTH 1236 0
DWIDTH 10 0
BBX 10 8 0 -1
BITMAP
3420240000
3A50770120
0840841850
0843735831
0844909865
0007707775
0008402255
0025300000
ENDCHAR
STARTCHAR onehalf
ENCODING 189
SWIDTH 1154 0
DWIDTH 9 0
BBX 9 8 0 -1
BITMAP
3420240000
3A50770000
0840847880
0843730280
0844900730
0007705500
0008408860
0025300000
ENDCHAR
STARTCHAR threequarters
ENCODING 190
SWIDTH 1345 0
DWIDTH 11 0
BBX 11 8 0 -1
BITMAP
343002400000
588405802100
048408527500
077527468210
246848297740
598358177740
000085022730
000163000000
ENDCHAR
STARTCHAR questiondown
ENCODING 191
SWIDTH 693 0
DWIDTH 6 0
BBX 6 7 0 0
BITMAP
256520
387871
024774
278872
279630
263000
284000
ENDCHAR
STARTCHAR Agrave
ENCODING 192
SWIDTH 936 0
DWIDTH 8 0
BBX 8 9 0 0
BITMAP
02300000
03671000
00314000
00687300
02878500
05867810
08757740
47867770
68533872
ENDCHAR
STARTCHAR Aacute
ENCODING 193
SWIDTH 936 0
DWIDTH 8 0
BBX 8 9 0 0
BITMAP
00001400
00048510
00345000
00687300
02878500
05867810
08757740
47867770
68533872
ENDCHAR
STARTCHAR Acircumflex
ENCODING 194
SWIDTH 936 0
DWIDTH 8 0
BBX 8 9 0 0
BITMAP
00084000
00467000
00334000
00687300
02878500
05867810
08757740
47867770
68533872
ENDCHAR
STARTCHAR Atilde
ENCODING 195
SWIDTH 936 0
DWIDTH 8 0
BBX 8 9 0 0
BITMAP
03887710
02344400
00334000
00687300
02878500
05867810
08757740
47867770
68533872
ENDCHAR
STARTCHAR Adieresis
ENCODING 196
SWIDTH 936 0
DWIDTH 8 0
BBX 8 8 0 0
BITMAP
02536400
00335000
00687300
02878500
05867810
08757740
47867770
68533872
ENDCHAR
STARTCHAR Aring
ENCODING 197
SWIDTH 936 0
DWIDTH 8 0
BBX 8 10 0 0
BITMAP
00031000
00367000
00174000
00334000
00687300
02878500
05867810
08757740
47867770
68533872
ENDCHAR
STARTCHAR AE
ENCODING 198
SWIDTH 1198 0
DWIDTH 10 0
BBX 10 7 0 0
BITMAP
0033544441
00687A8882
0287850000
0586799870
0875777430
4786778441
6853387982
ENDCHAR
STARTCHAR Ccedilla
ENCODING 199
SWIDTH 852 0
DWIDTH 7 0
BBX 7 10 0 -3
BITMAP
01565300
18878730
58745400
77400000
68501100
38878720
04877710
00284000
00561000
00491000
ENDCHAR
STARTCHAR Egrave
ENCODING 200
SWIDTH 706 0
DWIDTH 6 0
BBX 6 9 0 0
BITMAP
240000
267200
333441
57A883
574000
57A700
577400
577441
57A883
ENDCHAR
STARTCHAR Eacute
ENCODING 201
SWIDTH 706 0
DWIDTH 6 0
BBX 6 9 0 0
BITMAP
000141
003851
336541
57A883
574000
57A700
577400
577441
57A883
ENDCHAR
STARTCHAR Ecircumflex
ENCODING 202
SWIDTH 706 0
DWIDTH 6 0
BBX 6 9 0 0
BITMAP
007400
026800
335441
57A883
574000
57A700
577400
577441
57A883
ENDCHAR
STARTCHAR Edieresis
ENCODING 203
SWIDTH 706 0
DWIDTH 6 0
BBX 6 8 0 0
BITMAP
163550
345551
57A883
574000
57A700
577400
577441
57A883
ENDCHAR
STARTCHAR Igrave
ENCODING 204
SWIDTH 338 0
DWIDTH 3 0
BBX 4 9 -1 0
BITMAP
4100
4850
0222
0574
0574
0574
0574
0574
0574
ENDCHAR
STARTCHAR Iacute
ENCODING 205
SWIDTH 338 0
DWIDTH 3 0
BBX 4 9 0 0
BITMAP
0033
1673
3520
5740
5740
5740
5740
5740
5740
ENDCHAR
STARTCHAR Icircumflex
ENCODING 206
SWIDTH 338 0
DWIDTH 3 0
BBX 3 9 0 0
BITMAP
3810
6740
3320
5740
5740
5740
5740
5740
5740
ENDCHAR
STARTCHAR Idieresis
ENCODING 207
SWIDTH 338 0
DWIDTH 3 0
BBX 5 8 -1 0
BITMAP
372530
034300
057400
057400
057400
057400
057400
057400
ENDCHAR
STARTCHAR Eth
ENCODING 208
SWIDTH 905 0
DWIDTH 7 0
BBX 7 7 0 0
BITMAP
34445100
48888820
48547870
78812790
58614680
48887750
59888500
ENDCHAR
STARTCHAR Ntilde
ENCODING 209
SWIDTH 877 0
DWIDTH 7 0
BBX 7 9 0 0
BITMAP
05886700
04244300
33302330
68734750
58775750
57888750
57778750
57468850
57418870
ENDCHAR
STARTCHAR Ograve
ENCODING 210
SWIDTH 933 0
DWIDTH 7 0
BBX 8 10 0 -1
BITMAP
02300000
03671000
01545300
18878840
58745881
77400773
68501872
38878770
04878710
00143000
ENDCHAR
STARTCHAR Oacute
ENCODING 211
SWIDTH 933 0
DWIDTH 7 0
BBX 8 10 0 -1
BITMAP
00001400
00048510
01586300
18878840
58745881
77400773
68501872
38878770
04878710
00143000
ENDCHAR
STARTCHAR Ocircumflex
ENCODING 212
SWIDTH 933 0
DWIDTH 7 0
BBX 8 10 0 -1
BITMAP
00084000
00467000
01565300
18878840
58745881
77400773
68501872
38878770
04878710
00143000
ENDCHAR
STARTCHAR Otilde
ENCODING 213
SWIDTH 933 0
DWIDTH 7 0
BBX 8 10 0 -1
BITMAP
04887710
03344400
01565300
18878840
58745881
77400773
68501872
38878770
04878710
00143000
ENDCHAR
STARTCHAR Odieresis
ENCODING 214
SWIDTH 933 0
DWIDTH 7 0
BBX 8 9 0 -1
BITMAP
02536400
01576300
18878840
58745881
77400773
68501872
38878770
04878710
00143000
ENDCHAR
STARTCHAR multiply
ENCODING 215
SWIDTH 790 0
DWIDTH 6 0
BBX 6 6 0 0
BITMAP
354345
277875
058870
037760
087883
577687
ENDCHAR
STARTCHAR Oslash
ENCODING 216
SWIDTH 938 0
DWIDTH 8 0
BBX 8 10 0 -2
BITMAP
00000400
01566730
18878840
58745781
77400773
68501872
38878770
05878710
07543000
00100000
ENDCHAR
STARTCHAR Ugrave
ENCODING 217
SWIDTH 905 0
DWIDTH 7 0
BBX 7 10 0 -1
BITMAP
03200000
03761000
33221340
67401780
67401780
67401780
58503780
48878850
05867700
00142000
ENDCHAR
STARTCHAR Uacute
ENCODING 218
SWIDTH 905 0
DWIDTH 7 0
BBX 7 10 0 -1
BITMAP
00001400
00058400
33221340
67401780
67401780
67401780
58503780
48878850
05867700
00142000
ENDCHAR
STARTCHAR Ucircumflex
ENCODING 219
SWIDTH 905 0
DWIDTH 7 0
BBX 7 10 0 -1
BITMAP
00183000
00475000
33201340
67401780
67401780
67401780
58503780
48878850
05867700
00142000
ENDCHAR
STARTCHAR Udieresis
ENCODING 220
SWIDTH 905 0
DWIDTH 7 0
BBX 7 9 0 -1
BITMAP
03517300
34301440
67401780
67401780
67401780
58503780
48878850
05867700
00142000
ENDCHAR
STARTCHAR Yacute
ENCODING 221
SWIDTH 789 0
DWIDTH 6 0
BBX 6 9 0 0
BITMAP
000042
002762
332244
485376
087773
048770
018730
008720
008720
ENDCHAR
STARTCHAR Thorn
ENCODING 222
SWIDTH 798 0
DWIDTH 6 0
BBX 7 8 0 -1
BITMAP
46300000
58A87200
58A87700
58419810
58658800
58997500
58643000
34200000
ENDCHAR
STARTCHAR germandbls
ENCODING 223
SWIDTH 826 0
DWIDTH 7 0
BBX 7 8 0 -1
BITMAP
04675200
48778700
57768630
67878810
67637740
67987830
67988400
34200000
ENDCHAR
STARTCHAR agrave
ENCODING 224
SWIDTH 832 0
DWIDTH 7 0
BBX 7 10 0 -1
BITMAP
14100000
15840000
00110000
03574100
37768700
57647730
77405740
57887740
06877740
00120000
ENDCHAR
STARTCHAR aacute
ENCODING 225
SWIDTH 832 0
DWIDTH 7 0
BBX 7 10 0 -1
BITMAP
00003200
00176300
00020000
03574100
37768700
57647730
77405740
57887740
06877740
00120000
ENDCHAR
STARTCHAR acircumflex
ENCODING 226
SWIDTH 832 0
DWIDTH 7 0
BBX 7 9 0 -1
BITMAP
00480000
00763000
03574100
37768700
57647730
77405740
57887740
06877740
00120000
ENDCHAR
STARTCHAR atilde
ENCODING 227
SWIDTH 832 0
DWIDTH 7 0
BBX 7 9 0 -1
BITMAP
07887400
13344100
03574100
37768700
57647730
77405740
57887740
06877740
00120000
ENDCHAR
STARTCHAR adieresis
ENCODING 228
SWIDTH 832 0
DWIDTH 7 0
BBX 7 8 0 -1
BITMAP
05535100
03675100
37768700
57647730
77405740
57887740
06877740
00120000
ENDCHAR
STARTCHAR aring
ENCODING 229
SWIDTH 832 0
DWIDTH 7 0
BBX 7 10 0 -1
BITMAP
00130000
00753000
00471000
03574100
37768700
57647730
77405740
57887740
06877740
00120000
ENDCHAR
STARTCHAR ae
ENCODING 230
SWIDTH 1166 0
DWIDTH 9 0
BBX 9 7 0 -1
BITMAP
0357536550
3776889880
5764778440
774057A870
5788777440
068777A880
0012000000
ENDCHAR
STARTCHAR ccedilla
ENCODING 231
SWIDTH 736 0
DWIDTH 6 0
BBX 6 9 0 -3
BITMAP
037861
378783
585220
674000
488761
067683
005810
018400
008600
ENDCHAR
STARTCHAR egrave
ENCODING 232
SWIDTH 666 0
DWIDTH 5 0
BBX 5 9 0 0
BITMAP
230000
366100
002000
356550
579880
577440
57A870
577440
57A880
ENDCHAR
STARTCHAR eacute
ENCODING 233
SWIDTH 666 0
DWIDTH 5 0
BBX 5 9 0 0
BITMAP
000140
004840
002000
356550
579880
577440
57A870
577440
57A880
ENDCHAR
STARTCHAR ecircumflex
ENCODING 234
SWIDTH 666 0
DWIDTH 5 0
BBX 5 8 0 0
BITMAP
008400
046600
356550
579880
577440
57A870
577440
57A880
ENDCHAR
STARTCHAR edieresis
ENCODING 235
SWIDTH 666 0
DWIDTH 5 0
BBX 5 7 0 0
BITMAP
252640
456660
579880
577440
57A870
577440
57A880
ENDCHAR
STARTCHAR igrave
ENCODING 236
SWIDTH 337 0
DWIDTH 3 0
BBX 4 9 -1 0
BITMAP
4100
4850
0020
0353
0574
0574
0574
0574
0574
ENDCHAR
STARTCHAR iacute
ENCODING 237
SWIDTH 337 0
DWIDTH 3 0
BBX 4 9 0 0
BITMAP
0033
1673
0200
3530
5740
5740
5740
5740
5740
ENDCHAR
STARTCHAR icircumflex
ENCODING 238
SWIDTH 337 0
DWIDTH 3 0
BBX 3 8 0 0
BITMAP
3810
6740
3530
5740
5740
5740
5740
5740
ENDCHAR
STARTCHAR idieresis
ENCODING 239
SWIDTH 337 0
DWIDTH 3 0
BBX 5 7 -1 0
BITMAP
372530
045300
057400
057400
057400
057400
057400
ENDCHAR
STARTCHAR eth
ENCODING 240
SWIDTH 783 0
DWIDTH 6 0
BBX 6 8 0 -1
BITMAP
046640
167785
004578
278688
678688
678777
276672
003300
ENDCHAR
STARTCHAR ntilde
ENCODING 241
SWIDTH 787 0
DWIDTH 6 0
BBX 6 8 0 0
BITMAP
178864
234441
545035
687448
587858
577878
573788
570689
ENDCHAR
STARTCHAR ograve
ENCODING 242
SWIDTH 833 0
DWIDTH 7 0
BBX 7 10 0 -1
BITMAP
04100000
04840000
00020000
03785100
37877700
58527740
67406840
48878810
06778300
00231000
ENDCHAR
STARTCHAR oacute
ENCODING 243
SWIDTH 833 0
DWIDTH 7 0
BBX 7 10 0 -1
BITMAP
00003200
00167300
00020000
03785100
37877700
58527740
67406840
48878810
06778300
00231000
ENDCHAR
STARTCHAR ocircumflex
ENCODING 244
SWIDTH 833 0
DWIDTH 7 0
BBX 7 9 0 -1
BITMAP
00480000
00664000
03785100
37877700
58527740
67406840
48878810
06778300
00231000
ENDCHAR
STARTCHAR otilde
ENCODING 245
SWIDTH 833 0
DWIDTH 7 0
BBX 7 9 0 -1
BITMAP
07887500
04344200
03785100
37877700
58527740
67406840
48878810
06778300
00231000
ENDCHAR
STARTCHAR odieresis
ENCODING 246
SWIDTH 833 0
DWIDTH 7 0
BBX 7 8 0 -1
BITMAP
04625200
04786100
37877700
58527740
67406840
48878810
06778300
00231000
ENDCHAR
STARTCHAR divide
ENCODING 247
SWIDTH 260 0
DWIDTH 2 0
BBX 2 5 0 0
BITMAP
57
11
22
45
44
ENDCHAR
STARTCHAR oslash
ENCODING 248
SWIDTH 832 0
DWIDTH 7 0
BBX 7 8 0 -1
BITMAP
00002100
03787500
37778700
68527740
77406840
48878810
08778300
04331000
ENDCHAR
STARTCHAR ugrave
ENCODING 249
SWIDTH 795 0
DWIDTH 6 0
BBX 6 10 0 -1
BITMAP
141000
158300
001100
443055
674088
674088
575088
488877
077772
002300
ENDCHAR
STARTCHAR uacute
ENCODING 250
SWIDTH 795 0
DWIDTH 6 0
BBX 6 10 0 -1
BITMAP
000032
002762
000200
443055
674088
674088
575088
488877
077772
002300
ENDCHAR
STARTCHAR ucircumflex
ENCODING 251
SWIDTH 795 0
DWIDTH 6 0
BBX 6 9 0 -1
BITMAP
005700
007630
443055
674088
674088
575088
488877
077772
002300
ENDCHAR
STARTCHAR udieresis
ENCODING 252
SWIDTH 795 0
DWIDTH 6 0
BBX 6 8 0 -1
BITMAP
055361
453065
674088
674088
575088
488877
077772
002300
ENDCHAR
STARTCHAR yacute
ENCODING 253
SWIDTH 733 0
DWIDTH 6 0
BBX 6 9 0 0
BITMAP
000041
003851
001100
442353
377773
077770
038730
008800
008800
ENDCHAR
STARTCHAR thorn
ENCODING 254
SWIDTH 833 0
DWIDTH 7 0
BBX 7 8 0 -1
BITMAP
24200000
58400000
58177400
58178820
58177840
58089710
58255200
46400000
ENDCHAR
STARTCHAR ydieresis
ENCODING 255
SWIDTH 733 0
DWIDTH 6 0
BBX 6 7 0 0
BITMAP
073360
453363
377773
077770
038730
008800
008800
ENDCHAR
STARTCHAR Amacron
ENCODING 256
SWIDTH 936 0
DWIDTH 8 0
BBX 8 7 0 0
BITMAP
00334000
00687300
02878500
05867810
08757740
47867770
68533872
ENDCHAR
STARTCHAR amacron
ENCODING 257
SWIDTH 832 0
DWIDTH 7 0
BBX 7 7 0 -1
BITMAP
03574100
37768700
57647730
77405740
57887740
06877740
00120000
ENDCHAR
STARTCHAR Abreve
ENCODING 258
SWIDTH 936 0
DWIDTH 8 0
BBX 8 9 0 0
BITMAP
00112000
00264000
00334000
00687300
02878500
05867810
08757740
47867770
68533872
ENDCHAR
STARTCHAR abreve
ENCODING 259
SWIDTH 832 0
DWIDTH 7 0
BBX 7 9 0 -1
BITMAP
00211000
00561000
03574100
37768700
57647730
77405740
57887740
06877740
00120000
ENDCHAR
STARTCHAR Aogonek
ENCODING 260
SWIDTH 937 0
DWIDTH 8 0
BBX 8 10 0 -3
BITMAP
00234000
00587300
01878600
05868810
08767840
37867780
58663873
00550000
00570000
00120000
ENDCHAR
STARTCHAR aogonek
ENCODING 261
SWIDTH 832 0
DWIDTH 7 0
BBX 7 9 0 -3
BITMAP
03574100
37768700
57647730
77405740
57887740
06A87740
01830000
02730000
01210000
ENDCHAR
STARTCHAR Cacute
ENCODING 262
SWIDTH 852 0
DWIDTH 7 0
BBX 7 10 0 -1
BITMAP
00001400
00048510
01586300
18878730
58745400
77400000
68501100
38878720
04877710
00143000
ENDCHAR
STARTCHAR cacute
ENCODING 263
SWIDTH 736 0
DWIDTH 6 0
BBX 6 10 0 -1
BITMAP
000032
001673
000200
037861
378783
585220
674000
488761
067683
002410
ENDCHAR
STARTCHAR Cdotaccent
ENCODING 266
SWIDTH 852 0
DWIDTH 7 0
BBX 7 10 0 -1
BITMAP
00042000
00084000
01565300
18878730
58745400
77400000
68501100
38878720
04877710
00143000
ENDCHAR
STARTCHAR cdotaccent
ENCODING 267
SWIDTH 736 0
DWIDTH 6 0
BBX 6 9 0 -1
BITMAP
002400
003800
037861
378783
585220
674000
488761
067683
002410
ENDCHAR
STARTCHAR Ccaron
ENCODING 268
SWIDTH 852 0
DWIDTH 7 0
BBX 7 10 0 -1
BITMAP
00366000
00084000
01565300
18878730
58745400
77400000
68501100
38878720
04877710
00143000
ENDCHAR
STARTCHAR ccaron
ENCODING 269
SWIDTH 736 0
DWIDTH 6 0
BBX 6 9 0 -1
BITMAP
006640
004800
037861
378783
585220
674000
488761
067683
002410
ENDCHAR
STARTCHAR Dcaron
ENCODING 270
SWIDTH 886 0
DWIDTH 7 0
BBX 7 9 0 0
BITMAP
00475000
00183000
34445100
59887810
57647860
57404680
57405770
58887740
69888500
ENDCHAR
STARTCHAR dcaron
ENCODING 271
SWIDTH 1084 0
DWIDTH 9 0
BBX 9 7 0 0
BITMAP
0000000320
4555410740
5988870730
5775874100
5740774000
5888771000
6988730000
ENDCHAR
STARTCHAR Dcroat
ENCODING 272
SWIDTH 888 0
DWIDTH 7 0
BBX 8 7 -1 0
BITMAP
03444510
05988881
05864786
33804468
26862577
05888774
06988850
ENDCHAR
STARTCHAR dcroat
ENCODING 273
SWIDTH 833 0
DWIDTH 7 0
BBX 8 6 -1 0
BITMAP
04555410
05988870
15753874
16762774
05888771
06988730
ENDCHAR
STARTCHAR Emacron
ENCODING 274
SWIDTH 706 0
DWIDTH 6 0
BBX 6 7 0 0
BITMAP
335441
57A883
574000
57A700
577400
577441
57A883
ENDCHAR
STARTCHAR emacron
ENCODING 275
SWIDTH 666 0
DWIDTH 5 0
BBX 5 6 0 0
BITMAP
356550
579880
577440
57A870
577440
57A880
ENDCHAR
STARTCHAR Ebreve
ENCODING 276
SWIDTH 706 0
DWIDTH 6 0
BBX 6 9 0 0
BITMAP
011200
016500
335441
57A883
574000
57A700
577400
577441
57A883
ENDCHAR
STARTCHAR ebreve
ENCODING 277
SWIDTH 666 0
DWIDTH 5 0
BBX 5 8 0 0
BITMAP
011200
026400
356550
579880
577440
57A870
577440
57A880
ENDCHAR
STARTCHAR Edotaccent
ENCODING 278
SWIDTH 706 0
DWIDTH 6 0
BBX 6 9 0 0
BITMAP
004200
007500
335441
57A883
574000
57A700
577400
577441
57A883
ENDCHAR
STARTCHAR edotaccent
ENCODING 279
SWIDTH 666 0
DWIDTH 5 0
BBX 5 8 0 0
BITMAP
004200
008300
356550
579880
577440
57A870
577440
57A880
ENDCHAR
STARTCHAR Eogonek
ENCODING 280
SWIDTH 706 0
DWIDTH 6 0
BBX 6 10 0 -3
BITMAP
335441
57A883
574000
57A700
577400
577441
57A8A4
000181
000174
000021
ENDCHAR
STARTCHAR eogonek
ENCODING 281
SWIDTH 666 0
DWIDTH 5 0
BBX 5 9 0 -3
BITMAP
356550
579880
577440
57A870
577440
57A8B0
000460
000480
000120
ENDCHAR
STARTCHAR Ecaron
ENCODING 282
SWIDTH 706 0
DWIDTH 6 0
BBX 6 9 0 0
BITMAP
026700
008400
335441
57A883
574000
57A700
577400
577441
57A883
ENDCHAR
STARTCHAR ecaron
ENCODING 283
SWIDTH 666 0
DWIDTH 5 0
BBX 5 8 0 0
BITMAP
046600
008400
356550
579880
577440
57A870
577440
57A880
ENDCHAR
STARTCHAR Gbreve
ENCODING 286
SWIDTH 908 0
DWIDTH 7 0
BBX 7 10 0 -1
BITMAP
00112000
00264000
01565300
18878730
58745400
77400330
67400880
37778880
05877880
00133000
ENDCHAR
STARTCHAR gbreve
ENCODING 287
SWIDTH 827 0
DWIDTH 7 0
BBX 7 9 0 -1
BITMAP
00211000
00462000
03786100
37878300
58522000
67405640
48879740
06768740
00241000
ENDCHAR
STARTCHAR Gdotaccent
ENCODING 288
SWIDTH 908 0
DWIDTH 7 0
BBX 7 10 0 -1
BITMAP
00042000
00084000
01565300
18878730
58745400
77400330
67400880
37778880
05877880
00133000
ENDCHAR
STARTCHAR gdotaccent
ENCODING 289
SWIDTH 827 0
DWIDTH 7 0
BBX 7 9 0 -1
BITMAP
00240000
00380000
03786100
37878300
58522000
67405640
48879740
06768740
00241000
ENDCHAR
STARTCHAR Gcommaaccent
ENCODING 290
SWIDTH 908 0
DWIDTH 7 0
BBX 7 11 0 -4
BITMAP
01565300
18878730
58745400
77400330
67400880
37778880
05877880
00175000
00074000
00073000
00010000
ENDCHAR
STARTCHAR gcommaaccent
ENCODING 291
SWIDTH 827 0
DWIDTH 7 0
BBX 7 7 0 -1
BITMAP
03786100
37878300
58522000
67405640
48879740
06768740
00241000
ENDCHAR
STARTCHAR Hcircumflex
ENCODING 292
SWIDTH 901 0
DWIDTH 7 0
BBX 7 9 0 0
BITMAP
00183000
00475000
33201340
57402780
57402780
57A89780
57746780
57402780
57402780
ENDCHAR
STARTCHAR hcircumflex
ENCODING 293
SWIDTH 830 0
DWIDTH 7 0
BBX 7 8 0 0
BITMAP
00480000
00664000
35304430
57406740
57868740
57978740
57406740
57406740
ENDCHAR
STARTCHAR Hbar
ENCODING 294
SWIDTH 901 0
DWIDTH 7 0
BBX 9 7 -1 0
BITMAP
0242013400
1583307810
1686347910
058A897800
0587467800
0584027800
0584027800
ENDCHAR
STARTCHAR hbar
ENCODING 295
SWIDTH 830 0
DWIDTH 7 0
BBX 7 6 0 0
BITMAP
35214420
58516740
58868740
58978740
58406740
58406740
ENDCHAR
STARTCHAR Itilde
ENCODING 296
SWIDTH 338 0
DWIDTH 3 0
BBX 5 9 -1 0
BITMAP
688750
434420
033200
057400
057400
057400
057400
057400
057400
ENDCHAR
STARTCHAR itilde
ENCODING 297
SWIDTH 337 0
DWIDTH 3 0
BBX 5 8 -1 0
BITMAP
688750
434420
035300
057400
057400
057400
057400
057400
ENDCHAR
STARTCHAR Imacron
ENCODING 298
SWIDTH 338 0
DWIDTH 3 0
BBX 3 7 0 0
BITMAP
3320
5740
5740
5740
5740
5740
5740
ENDCHAR
STARTCHAR imacron
ENCODING 299
SWIDTH 337 0
DWIDTH 3 0
BBX 3 6 0 0
BITMAP
3530
5740
5740
5740
5740
5740
ENDCHAR
STARTCHAR Ibreve
ENCODING 300
SWIDTH 338 0
DWIDTH 3 0
BBX 3 9 0 0
BITMAP
2110
4620
3320
5740
5740
5740
5740
5740
5740
ENDCHAR
STARTCHAR ibreve
ENCODING 301
SWIDTH 337 0
DWIDTH 3 0
BBX 3 8 0 0
BITMAP
2110
4620
3530
5740
5740
5740
5740
5740
ENDCHAR
STARTCHAR Iogonek
ENCODING 302
SWIDTH 338 0
DWIDTH 3 0
BBX 3 10 0 -3
BITMAP
3320
5740
5740
5740
5740
5740
5960
0810
1740
0210
ENDCHAR
STARTCHAR iogonek
ENCODING 303
SWIDTH 337 0
DWIDTH 3 0
BBX 3 9 0 -3
BITMAP
3530
5740
5740
5740
5740
5960
0820
1840
0210
ENDCHAR
STARTCHAR Idotaccent
ENCODING 304
SWIDTH 338 0
DWIDTH 3 0
BBX 3 9 0 0
BITMAP
1400
3810
3320
5740
5740
5740
5740
5740
5740
ENDCHAR
STARTCHAR dotlessi
ENCODING 305
SWIDTH 337 0
DWIDTH 3 0
BBX 3 6 0 0
BITMAP
3530
5740
5740
5740
5740
5740
ENDCHAR
STARTCHAR IJ
ENCODING 306
SWIDTH 774 0
DWIDTH 6 0
BBX 6 8 0 -1
BITMAP
332134
574278
574278
574278
574268
575776
575772
000410
ENDCHAR
STARTCHAR ij
ENCODING 307
SWIDTH 729 0
DWIDTH 6 0
BBX 6 7 0 -1
BITMAP
353353
574484
574484
574484
574684
575772
001730
ENDCHAR
STARTCHAR Jcircumflex
ENCODING 308
SWIDTH 434 0
DWIDTH 3 0
BBX 4 10 0 -1
BITMAP
0570
0772
0431
0872
0872
0872
0872
5780
5840
3100
ENDCHAR
STARTCHAR jcircumflex
ENCODING 309
SWIDTH 393 0
DWIDTH 3 0
BBX 3 9 0 -1
BITMAP
0840
3670
2450
3780
3780
3780
5770
5840
6400
ENDCHAR
STARTCHAR Kcommaaccent
ENCODING 310
SWIDTH 815 0
DWIDTH 7 0
BBX 7 10 0 -3
BITMAP
33204320
57447700
57487400
57878000
57678200
57468500
57428820
00230000
00371000
00280000
ENDCHAR
STARTCHAR kcommaaccent
ENCODING 311
SWIDTH 801 0
DWIDTH 6 0
BBX 7 9 0 -3
BITMAP
35315510
57458600
57278200
57078000
57477400
57437810
00240000
00380000
00380000
ENDCHAR
STARTCHAR kgreenlandic
ENCODING 312
SWIDTH 801 0
DWIDTH 6 0
BBX 7 6 0 0
BITMAP
35315510
57458600
57278200
57078000
57477400
57437810
ENDCHAR
STARTCHAR Lacute
ENCODING 313
SWIDTH 604 0
DWIDTH 5 0
BBX 5 9 0 0
BITMAP
000230
006740
334000
574000
574000
574000
574000
577420
57A850
ENDCHAR
STARTCHAR lacute
ENCODING 314
SWIDTH 583 0
DWIDTH 5 0
BBX 5 9 0 0
BITMAP
003300
167300
020000
353000
574000
574000
574000
577420
57A830
ENDCHAR
STARTCHAR Lcommaaccent
ENCODING 315
SWIDTH 604 0
DWIDTH 5 0
BBX 5 10 0 -3
BITMAP
332000
574000
574000
574000
574000
577420
57A850
013100
026300
028100
ENDCHAR
STARTCHAR lcommaaccent
ENCODING 316
SWIDTH 583 0
DWIDTH 5 0
BBX 5 9 0 -3
BITMAP
353000
574000
574000
574000
577420
57A830
023100
037100
028000
ENDCHAR
STARTCHAR Lcaron
ENCODING 317
SWIDTH 856 0
DWIDTH 7 0
BBX 7 7 0 0
BITMAP
33200320
57400750
57400640
57400100
57400000
57742000
57A85000
ENDCHAR
STARTCHAR lcaron
ENCODING 318
SWIDTH 584 0
DWIDTH 5 0
BBX 5 7 0 0
BITMAP
000320
353740
575730
574100
574000
577420
57A830
ENDCHAR
STARTCHAR Ldot
ENCODING 319
SWIDTH 604 0
DWIDTH 5 0
BBX 5 7 0 0
BITMAP
332000
574000
575410
576820
574000
577420
57A850
ENDCHAR
STARTCHAR ldot
ENCODING 320
SWIDTH 582 0
DWIDTH 5 0
BBX 5 6 0 0
BITMAP
353000
575410
576820
574000
577420
57A830
ENDCHAR
STARTCHAR Lslash
ENCODING 321
SWIDTH 604 0
DWIDTH 5 0
BBX 6 7 -1 0
BITMAP
024200
058400
058150
448630
168400
058742
058A85
ENDCHAR
STARTCHAR lslash
ENCODING 322
SWIDTH 581 0
DWIDTH 5 0
BBX 6 6 -1 0
BITMAP
035300
058230
248400
158500
158742
058A83
ENDCHAR
STARTCHAR Nacute
ENCODING 323
SWIDTH 877 0
DWIDTH 7 0
BBX 7 9 0 0
BITMAP
00002300
00067400
33322330
68734750
58775750
57888750
57778750
57468850
57418870
ENDCHAR
STARTCHAR nacute
ENCODING 324
SWIDTH 787 0
DWIDTH 6 0
BBX 6 9 0 0
BITMAP
000042
002762
000200
545035
687448
587858
577878
573788
570689
ENDCHAR
STARTCHAR Ncommaaccent
ENCODING 325
SWIDTH 877 0
DWIDTH 7 0
BBX 7 10 0 -3
BITMAP
33302330
68734750
58775750
57888750
57778750
57468850
57418870
00131000
00263000
00181000
ENDCHAR
STARTCHAR ncommaaccent
ENCODING 326
SWIDTH 787 0
DWIDTH 6 0
BBX 6 10 0 -4
BITMAP
545035
687448
587858
577878
573788
570689
002400
003800
004600
001000
ENDCHAR
STARTCHAR Ncaron
ENCODING 327
SWIDTH 877 0
DWIDTH 7 0
BBX 7 9 0 0
BITMAP
00474000
00282000
33302330
68734750
58775750
57888750
57778750
57468850
57418870
ENDCHAR
STARTCHAR ncaron
ENCODING 328
SWIDTH 787 0
DWIDTH 6 0
BBX 6 8 0 0
BITMAP
007620
005700
545035
687448
587858
577878
573788
570689
ENDCHAR
STARTCHAR Eng
ENCODING 330
SWIDTH 874 0
DWIDTH 7 0
BBX 7 10 0 -3
BITMAP
33402420
68744850
58785850
57788850
58688850
58458850
58407850
00015840
00038720
00014200
ENDCHAR
STARTCHAR eng
ENCODING 331
SWIDTH 691 0
DWIDTH 6 0
BBX 6 9 0 -3
BITMAP
545241
687872
587872
577872
573872
570772
000672
000760
000100
ENDCHAR
STARTCHAR Omacron
ENCODING 332
SWIDTH 933 0
DWIDTH 7 0
BBX 8 8 0 -1
BITMAP
01565300
18878840
58745881
77400773
68501872
38878770
04878710
00143000
ENDCHAR
STARTCHAR omacron
ENCODING 333
SWIDTH 833 0
DWIDTH 7 0
BBX 7 7 0 -1
BITMAP
03785100
37877700
58527740
67406840
48878810
06778300
00231000
ENDCHAR
STARTCHAR Obreve
ENCODING 334
SWIDTH 933 0
DWIDTH 7 0
BBX 8 10 0 -1
BITMAP
00112000
00264000
01565300
18878840
58745881
77400773
68501872
38878770
04878710
00143000
ENDCHAR
STARTCHAR obreve
ENCODING 335
SWIDTH 833 0
DWIDTH 7 0
BBX 7 9 0 -1
BITMAP
00211000
00462000
03785100
37877700
58527740
67406840
48878810
06778300
00231000
ENDCHAR
STARTCHAR Ohungarumlaut
ENCODING 336
SWIDTH 933 0
DWIDTH 7 0
BBX 8 10 0 -1
BITMAP
00032032
01765762
01765500
18878840
58745881
77400773
68501872
38878770
04878710
00143000
ENDCHAR
STARTCHAR ohungarumlaut
ENCODING 337
SWIDTH 833 0
DWIDTH 7 0
BBX 8 10 0 -1
BITMAP
00141141
03855851
01101100
03785100
37877700
58527740
67406840
48878810
06778300
00231000
ENDCHAR
STARTCHAR OE
ENCODING 338
SWIDTH 1317 0
DWIDTH 11 0
BBX 11 8 0 -1
BITMAP
015654154410
1887873A8820
587457340000
7740073A7000
685017373000
388787374410
0487773A8820
001420000000
ENDCHAR
STARTCHAR oe
ENCODING 339
SWIDTH 1174 0
DWIDTH 9 0
BBX 10 7 0 -1
BITMAP
0378556550
3621189771
5152287440
6240489880
4312487440
0673789881
0024100000
ENDCHAR
STARTCHAR Racute
ENCODING 340
SWIDTH 843 0
DWIDTH 7 0
BBX 7 9 0 0
BITMAP
00032000
01763000
34644100
59887710
57646840
57888740
57877800
57669600
57418800
ENDCHAR
STARTCHAR Rcommaaccent
ENCODING 342
SWIDTH 843 0
DWIDTH 7 0
BBX 7 10 0 -3
BITMAP
34444100
59887710
57646840
57888740
57877800
57669600
57418800
00240000
00390000
00370000
ENDCHAR
STARTCHAR rcommaaccent
ENCODING 343
SWIDTH 831 0
DWIDTH 7 0
BBX 7 10 0 -4
BITMAP
45555200
59888720
57988740
57878720
57889500
57448600
00230000
00380000
00560000
00100000
ENDCHAR
STARTCHAR Rcaron
ENCODING 344
SWIDTH 843 0
DWIDTH 7 0
BBX 7 9 0 0
BITMAP
06640000
04800000
34444100
59887710
57646840
57888740
57877800
57669600
57418800
ENDCHAR
STARTCHAR rcaron
ENCODING 345
SWIDTH 831 0
DWIDTH 7 0
BBX 7 8 0 0
BITMAP
00574000
00381000
45555200
59888720
57988740
57878720
57889500
57448600
ENDCHAR
STARTCHAR Sacute
ENCODING 346
SWIDTH 682 0
DWIDTH 5 0
BBX 6 10 0 -1
BITMAP
000141
004851
058640
587751
778500
587760
057882
056872
487760
014200
ENDCHAR
STARTCHAR sacute
ENCODING 347
SWIDTH 683 0
DWIDTH 5 0
BBX 6 10 0 -1
BITMAP
000141
004851
001100
157640
686751
674420
268881
144672
487860
001100
ENDCHAR
STARTCHAR Scircumflex
ENCODING 348
SWIDTH 682 0
DWIDTH 5 0
BBX 6 10 0 -1
BITMAP
008400
046600
056540
587751
778500
587760
057882
056872
487760
014200
ENDCHAR
STARTCHAR scircumflex
ENCODING 349
SWIDTH 683 0
DWIDTH 5 0
BBX 6 9 0 -1
BITMAP
008400
046600
157640
686751
674420
268881
144672
487860
001100
ENDCHAR
STARTCHAR Scedilla
ENCODING 350
SWIDTH 682 0
DWIDTH 5 0
BBX 6 10 0 -3
BITMAP
056540
587751
778500
587760
057882
056872
487760
028400
056100
059100
ENDCHAR
STARTCHAR scedilla
ENCODING 351
SWIDTH 683 0
DWIDTH 5 0
BBX 6 9 0 -3
BITMAP
157640
686751
674420
268881
144672
487860
016200
056100
059100
ENDCHAR
STARTCHAR Scaron
ENCODING 352
SWIDTH 682 0
DWIDTH 5 0
BBX 6 10 0 -1
BITMAP
036700
008400
056540
587751
778500
587760
057882
056872
487760
014200
ENDCHAR
STARTCHAR scaron
ENCODING 353
SWIDTH 683 0
DWIDTH 5 0
BBX 6 9 0 -1
BITMAP
036700
008400
157640
686751
674420
268881
144672
487860
001100
ENDCHAR
STARTCHAR Tcommaaccent
ENCODING 354
SWIDTH 591 0
DWIDTH 5 0
BBX 5 9 0 -2
BITMAP
344420
699940
057400
057400
057400
057400
08B400
084000
087000
ENDCHAR
STARTCHAR tcommaaccent
ENCODING 355
SWIDTH 588 0
DWIDTH 5 0
BBX 5 8 0 -2
BITMAP
455520
688830
057400
057400
057400
08B400
084000
087000
ENDCHAR
STARTCHAR Tcaron
ENCODING 356
SWIDTH 591 0
DWIDTH 5 0
BBX 5 9 0 0
BITMAP
056400
048100
344420
699940
057400
057400
057400
057400
057400
ENDCHAR
STARTCHAR tcaron
ENCODING 357
SWIDTH 842 0
DWIDTH 7 0
BBX 7 7 0 0
BITMAP
00000320
45552740
68883740
05740100
05740000
05740000
05740000
ENDCHAR
STARTCHAR Tbar
ENCODING 358
SWIDTH 591 0
DWIDTH 5 0
BBX 5 7 0 0
BITMAP
344420
699940
057400
647040
367620
057400
057400
ENDCHAR
STARTCHAR tbar
ENCODING 359
SWIDTH 588 0
DWIDTH 5 0
BBX 5 6 0 0
BITMAP
455520
688830
057400
647040
367620
057400
ENDCHAR
STARTCHAR Utilde
ENCODING 360
SWIDTH 905 0
DWIDTH 7 0
BBX 7 10 0 -1
BITMAP
04887700
03244300
33201340
67401780
67401780
67401780
58503780
48878850
05867700
00142000
ENDCHAR
STARTCHAR utilde
ENCODING 361
SWIDTH 795 0
DWIDTH 6 0
BBX 6 9 0 -1
BITMAP
178864
133441
443055
674088
674088
575088
488877
077772
002300
ENDCHAR
STARTCHAR Umacron
ENCODING 362
SWIDTH 905 0
DWIDTH 7 0
BBX 7 8 0 -1
BITMAP
33201340
67401780
67401780
67401780
58503780
48878850
05867700
00142000
ENDCHAR
STARTCHAR umacron
ENCODING 363
SWIDTH 795 0
DWIDTH 6 0
BBX 6 7 0 -1
BITMAP
443055
674088
674088
575088
488877
077772
002300
ENDCHAR
STARTCHAR Ubreve
ENCODING 364
SWIDTH 905 0
DWIDTH 7 0
BBX 7 10 0 -1
BITMAP
00112000
00273000
33201340
67401780
67401780
67401780
58503780
48878850
05867700
00142000
ENDCHAR
STARTCHAR ubreve
ENCODING 365
SWIDTH 795 0
DWIDTH 6 0
BBX 6 9 0 -1
BITMAP
002110
005610
443055
674088
674088
575088
488877
077772
002300
ENDCHAR
STARTCHAR Uring
ENCODING 366
SWIDTH 905 0
DWIDTH 7 0
BBX 7 11 0 -1
BITMAP
00030000
00466000
00273000
33201340
67401780
67401780
67401780
58503780
48878850
05867700
00142000
ENDCHAR
STARTCHAR uring
ENCODING 367
SWIDTH 795 0
DWIDTH 6 0
BBX 6 10 0 -1
BITMAP
001200
007620
005710
443055
674088
674088
575088
488877
077772
002300
ENDCHAR
STARTCHAR Uhungarumlaut
ENCODING 368
SWIDTH 905 0
DWIDTH 7 0
BBX 8 10 0 -1
BITMAP
00042041
02765752
33401540
67401780
67401780
67401780
58503780
48878850
05867700
00142000
ENDCHAR
STARTCHAR uhungarumlaut
ENCODING 369
SWIDTH 795 0
DWIDTH 6 0
BBX 7 10 0 -1
BITMAP
00140140
04845840
02002000
44305500
67408800
67408800
57508800
48887700
07777200
00230000
ENDCHAR
STARTCHAR Uogonek
ENCODING 370
SWIDTH 905 0
DWIDTH 7 0
BBX 7 10 0 -3
BITMAP
33201340
67401780
67401780
67401780
58503780
48878850
05897700
00692000
00480000
00120000
ENDCHAR
STARTCHAR uogonek
ENCODING 371
SWIDTH 794 0
DWIDTH 6 0
BBX 6 9 0 -3
BITMAP
443055
674088
674088
575088
488877
079872
00A500
017400
002100
ENDCHAR
STARTCHAR Ycircumflex
ENCODING 374
SWIDTH 789 0
DWIDTH 6 0
BBX 6 9 0 0
BITMAP
005700
007630
332044
485376
087773
048770
018730
008720
008720
ENDCHAR
STARTCHAR ycircumflex
ENCODING 375
SWIDTH 733 0
DWIDTH 6 0
BBX 6 8 0 0
BITMAP
007500
017800
442353
377773
077770
038730
008800
008800
ENDCHAR
STARTCHAR Ydieresis
ENCODING 376
SWIDTH 789 0
DWIDTH 6 0
BBX 6 8 0 0
BITMAP
054361
342054
485376
087773
048770
018730
008720
008720
ENDCHAR
STARTCHAR Zacute
ENCODING 377
SWIDTH 854 0
DWIDTH 7 0
BBX 7 9 0 0
BITMAP
00002300
00167400
34464430
68887730
34457740
02777500
37773000
58668840
78888840
ENDCHAR
STARTCHAR zacute
ENCODING 378
SWIDTH 714 0
DWIDTH 6 0
BBX 6 9 0 0
BITMAP
000041
003851
001100
355552
588772
018750
067700
377642
687884
ENDCHAR
STARTCHAR Zdotaccent
ENCODING 379
SWIDTH 854 0
DWIDTH 7 0
BBX 7 9 0 0
BITMAP
00141000
00281000
34444430
68887730
34457740
02777500
37773000
58668840
78888840
ENDCHAR
STARTCHAR zdotaccent
ENCODING 380
SWIDTH 714 0
DWIDTH 6 0
BBX 6 8 0 0
BITMAP
003300
007500
355552
588772
018750
067700
377642
687884
ENDCHAR
STARTCHAR Zcaron
ENCODING 381
SWIDTH 854 0
DWIDTH 7 0
BBX 7 9 0 0
BITMAP
00574000
00381000
34444430
68887730
34457740
02777500
37773000
58668840
78888840
ENDCHAR
STARTCHAR zcaron
ENCODING 382
SWIDTH 714 0
DWIDTH 6 0
BBX 6 8 0 0
BITMAP
026800
008500
355552
588772
018750
067700
377642
687884
ENDCHAR
STARTCHAR florin
ENCODING 402
SWIDTH 388 0
DWIDTH 3 0
BBX 3 8 0 -1
BITMAP
0450
1860
4760
6770
2740
2740
6810
3300
ENDCHAR
STARTCHAR uni01C4
ENCODING 452
SWIDTH 1740 0
DWIDTH 14 0
BBX 14 9 0 0
BITMAP
00000000047400
00000000028200
34445102444444
59887815888774
57647862445775
57404680167761
57405773777300
58887744866885
69888506888885
ENDCHAR
STARTCHAR uni01C5
ENCODING 453
SWIDTH 1601 0
DWIDTH 13 0
BBX 13 8 0 0
BITMAP
00000000168100
34445100075000
59887813555520
57647864887720
57404680077500
57405770578100
58887742876420
69888505888840
ENDCHAR
STARTCHAR Scommaaccent
ENCODING 536
SWIDTH 682 0
DWIDTH 5 0
BBX 6 11 0 -4
BITMAP
056540
587751
778500
587760
057882
056872
487760
027400
007400
007300
001000
ENDCHAR
STARTCHAR scommaaccent
ENCODING 537
SWIDTH 683 0
DWIDTH 5 0
BBX 6 10 0 -4
BITMAP
157640
686751
674420
268881
144672
487860
005200
007400
007300
001000
ENDCHAR
STARTCHAR uni021A
ENCODING 538
SWIDTH 591 0
DWIDTH 5 0
BBX 5 10 0 -3
BITMAP
344420
699940
057400
057400
057400
057400
057400
023000
038100
028000
ENDCHAR
STARTCHAR uni021B
ENCODING 539
SWIDTH 588 0
DWIDTH 5 0
BBX 5 9 0 -3
BITMAP
455520
688830
057400
057400
057400
057400
023000
038100
028000
ENDCHAR
STARTCHAR uni0237
ENCODING 567
SWIDTH 393 0
DWIDTH 3 0
BBX 3 7 0 -1
BITMAP
2450
3780
3780
3780
5770
5840
6400
ENDCHAR
STARTCHAR circumflex
ENCODING 710
SWIDTH 376 0
DWIDTH 3 0
BBX 3 2 0 6
BITMAP
2820
5750
ENDCHAR
STARTCHAR caron
ENCODING 711
SWIDTH 362 0
DWIDTH 3 0
BBX 3 2 0 6
BITMAP
5740
3820
ENDCHAR
STARTCHAR breve
ENCODING 728
SWIDTH 360 0
DWIDTH 3 0
BBX 3 2 0 6
BITMAP
2010
3720
ENDCHAR
STARTCHAR dotaccent
ENCODING 729
SWIDTH 255 0
DWIDTH 2 0
BBX 2 2 0 5
BITMAP
33
66
ENDCHAR
STARTCHAR ring
ENCODING 730
SWIDTH 330 0
DWIDTH 3 0
BBX 3 3 0 6
BITMAP
1300
7540
4720
ENDCHAR
STARTCHAR ogonek
ENCODING 731
SWIDTH 250 0
DWIDTH 2 0
BBX 2 4 0 -3
BITMAP
13
64
76
22
ENDCHAR
STARTCHAR tilde
ENCODING 732
SWIDTH 665 0
DWIDTH 5 0
BBX 5 2 0 4
BITMAP
488770
334430
ENDCHAR
STARTCHAR hungarumlaut
ENCODING 733
SWIDTH 837 0
DWIDTH 7 0
BBX 7 3 0 5
BITMAP
00410410
38558510
11011000
ENDCHAR
STARTCHAR uni0307
ENCODING 775
SWIDTH 260 0
DWIDTH 2 0
BBX 2 2 0 3
BITMAP
33
66
ENDCHAR
STARTCHAR uni030F
ENCODING 783
SWIDTH 554 0
DWIDTH 4 0
BBX 4 4 0 5
BITMAP
3242
4545
0818
0101
ENDCHAR
STARTCHAR uni0311
ENCODING 785
SWIDTH 375 0
DWIDTH 3 0
BBX 3 2 0 6
BITMAP
0300
4440
ENDCHAR
STARTCHAR uni0326
ENCODING 806
SWIDTH 274 0
DWIDTH 2 0
BBX 2 4 0 -4
BITMAP
23
48
56
10
ENDCHAR
STARTCHAR Omega
ENCODING 937
SWIDTH 92 0
DWIDTH 1 0
BBX 1 1 0 0
BITMAP
00
ENDCHAR
STARTCHAR uni00B5.dup2
ENCODING 956
SWIDTH 802 0
DWIDTH 6 0
BBX 7 7 0 -1
BITMAP
35305410
58408710
58408710
58409710
58887700
58777300
46531000
ENDCHAR
STARTCHAR pi
ENCODING 960
SWIDTH 92 0
DWIDTH 1 0
BBX 1 1 0 0
BITMAP
00
ENDCHAR
STARTCHAR endash
ENCODING 8211
SWIDTH 473 0
DWIDTH 4 0
BBX 4 2 0 2
BITMAP
5884
3442
ENDCHAR
STARTCHAR emdash
ENCODING 8212
SWIDTH 615 0
DWIDTH 5 0
BBX 5 2 0 2
BITMAP
588850
344420
ENDCHAR
STARTCHAR quoteleft
ENCODING 8216
SWIDTH 254 0
DWIDTH 2 0
BBX 2 3 0 4
BITMAP
23
55
67
ENDCHAR
STARTCHAR quoteright
ENCODING 8217
SWIDTH 251 0
DWIDTH 2 0
BBX 2 3 0 4
BITMAP
33
57
65
ENDCHAR
STARTCHAR quotesinglbase
ENCODING 8218
SWIDTH 252 0
DWIDTH 2 0
BBX 2 4 0 -2
BITMAP
23
57
55
10
ENDCHAR
STARTCHAR quotedblleft
ENCODING 8220
SWIDTH 535 0
DWIDTH 4 0
BBX 4 4 0 3
BITMAP
2304
5546
6748
0001
ENDCHAR
STARTCHAR quotedblright
ENCODING 8221
SWIDTH 532 0
DWIDTH 4 0
BBX 4 3 0 4
BITMAP
3324
5738
6537
ENDCHAR
STARTCHAR quotedblbase
ENCODING 8222
SWIDTH 533 0
DWIDTH 4 0
BBX 4 4 0 -2
BITMAP
2323
5738
5537
1010
ENDCHAR
STARTCHAR dagger
ENCODING 8224
SWIDTH 636 0
DWIDTH 5 0
BBX 5 7 0 0
BITMAP
024200
268520
588760
378630
048400
048400
048400
ENDCHAR
STARTCHAR daggerdbl
ENCODING 8225
SWIDTH 648 0
DWIDTH 5 0
BBX 5 7 0 0
BITMAP
024200
278630
598860
268620
378740
598870
048500
ENDCHAR
STARTCHAR bullet
ENCODING 8226
SWIDTH 501 0
DWIDTH 4 0
BBX 4 4 0 1
BITMAP
0440
5665
6446
2782
ENDCHAR
STARTCHAR ellipsis
ENCODING 8230
SWIDTH 676 0
DWIDTH 5 0
BBX 6 2 0 0
BITMAP
334340
668681
ENDCHAR
STARTCHAR perthousand
ENCODING 8240
SWIDTH 447 0
DWIDTH 4 0
BBX 4 8 0 -1
BITMAP
0132
0473
0590
0760
1840
4730
4900
5500
ENDCHAR
STARTCHAR guilsinglleft
ENCODING 8249
SWIDTH 465 0
DWIDTH 4 0
BBX 4 4 0 1
BITMAP
0253
5782
6772
0464
ENDCHAR
STARTCHAR guilsinglright
ENCODING 8250
SWIDTH 465 0
DWIDTH 4 0
BBX 4 4 0 1
BITMAP
5410
4883
3774
6530
ENDCHAR
STARTCHAR fraction
ENCODING 8260
SWIDTH 447 0
DWIDTH 4 0
BBX 4 8 0 -1
BITMAP
0132
0473
0590
0760
1840
4730
4900
5500
ENDCHAR
STARTCHAR uni2074
ENCODING 8308
SWIDTH 528 0
DWIDTH 4 0
BBX 4 6 0 1
BITMAP
0240
0860
4762
5766
6888
0033
ENDCHAR
STARTCHAR Euro
ENCODING 8364
SWIDTH 781 0
DWIDTH 6 0
BBX 6 8 0 -1
BITMAP
003575
048876
088532
567430
478530
068865
016777
000242
ENDCHAR
STARTCHAR trademark
ENCODING 8482
SWIDTH 1503 0
DWIDTH 12 0
BBX 12 6 0 1
BITMAP
344424300043
699949720577
048108861876
048108776776
048108488576
012003123122
ENDCHAR
STARTCHAR partialdiff
ENCODING 8706
SWIDTH 108 0
DWIDTH 1 0
BBX 1 1 0 0
BITMAP
00
ENDCHAR
STARTCHAR uni2206
ENCODING 8710
SWIDTH 108 0
DWIDTH 1 0
BBX 1 1 0 0
BITMAP
00
ENDCHAR
STARTCHAR product
ENCODING 8719
SWIDTH 521 0
DWIDTH 4 0
BBX 4 6 0 0
BITMAP
0550
2874
5776
5868
3774
0881
ENDCHAR
STARTCHAR summation
ENCODING 8721
SWIDTH 108 0
DWIDTH 1 0
BBX 1 1 0 0
BITMAP
00
ENDCHAR
STARTCHAR minus
ENCODING 8722
SWIDTH 555 0
DWIDTH 4 0
BBX 5 3 0 2
BITMAP
233300
477710
233300
ENDCHAR
STARTCHAR radical
ENCODING 8730
SWIDTH 108 0
DWIDTH 1 0
BBX 1 1 0 0
BITMAP
00
ENDCHAR
STARTCHAR infinity
ENCODING 8734
SWIDTH 108 0
DWIDTH 1 0
BBX 1 1 0 0
BITMAP
00
ENDCHAR
STARTCHAR integral
ENCODING 8747
SWIDTH 362 0
DWIDTH 3 0
BBX 3 8 0 -1
BITMAP
0450
2850
4720
4720
4720
4720
7800
3300
ENDCHAR
STARTCHAR approxequal
ENCODING 8776
SWIDTH 665 0
DWIDTH 5 0
BBX 5 4 0 2
BITMAP
488770
334430
488770
334430
ENDCHAR
STARTCHAR notequal
ENCODING 8800
SWIDTH 473 0
DWIDTH 4 0
BBX 4 8 0 -1
BITMAP
0132
0473
5CF3
3CB2
3C92
9FB4
4900
5500
ENDCHAR
STARTCHAR lessequal
ENCODING 8804
SWIDTH 108 0
DWIDTH 1 0
BBX 1 1 0 0
BITMAP
00
ENDCHAR
STARTCHAR greaterequal
ENCODING 8805
SWIDTH 108 0
DWIDTH 1 0
BBX 1 1 0 0
BITMAP
00
ENDCHAR
STARTCHAR lozenge
ENCODING 9674
SWIDTH 521 0
DWIDTH 4 0
BBX 4 6 0 0
BITMAP
0550
2874
5776
5868
3774
0881
ENDCHAR
STARTCHAR uniF8FF
ENCODING 63743
SWIDTH 108 0
DWIDTH 1 0
BBX 1 1 0 0
BITMAP
00
ENDCHAR
STARTCHAR uniFB01
ENCODING 64257
SWIDTH 962 0
DWIDTH 8 0
BBX 8 6 0 0
BITMAP
35654353
57986574
57742574
57984574
57510574
57400574
ENDCHAR
STARTCHAR uniFB02
ENCODING 64258
SWIDTH 1208 0
DWIDTH 10 0
BBX 10 6 0 0
BITMAP
3565435300
5798657400
5774257400
5798457400
5751057742
5740057A83
ENDCHAR
STARTCHAR .notdef
ENCODING -1
SWIDTH 108 0
DWIDTH 1 0
BBX 1 1 0 0
BITMAP
00
ENDCHAR
ENDFONT
